<?xml version="1.0" encoding="utf-8"?>
<!-- Generator: Adobe Illustrator 19.0.0, SVG Export Plug-In . SVG Version: 6.00 Build 0)  -->
<svg version="1.1" id="Layer_1" xmlns="http://www.w3.org/2000/svg" xmlns:xlink="http://www.w3.org/1999/xlink" x="0px" y="0px"
	 viewBox="0 0 700 137.4" style="enable-background:new 0 0 700 137.4;" xml:space="preserve">
<path id="XMLID_103_" d="M500.7,116.1c-1.4-0.2-2.9,0.3-4.6,0.7c-2.1,0.6-4.5,1.3-5.6,0l-0.8-0.5c-3.3-1.3-3.9-3.8-4.6-6.5
	c-0.2-0.7-0.3-1.4-0.5-2c-0.4-5.3,2.2-9.4,4.8-13.5c0.9-1.4,1.8-2.9,2.7-4.5l0.3-1c0-1.3-0.4-2.3-1-3.1c-0.6-0.8-1.4-1.3-2.4-1.6
	l-1.2,0c-3.7,1-7.7,1.5-11.3,0.8c-2.9-0.5-5.5-1.8-7.5-4.2l-0.3-0.3c-0.7-0.5-1.2-2.1-1.7-3.7c-0.4-1.3-0.9-2.7-1.6-3.8
	c-1.5-2.6-3.7-3.8-7.4-1.5l-0.8,1c-1,2.3-2.2,4.8-3.6,7.2c-1.4,2.5-3,5-4.6,7.3l0.1-0.1c-1.2,1.5-2.4,3.3-3.7,5.2
	c-4.5,6.6-9.6,14-17.8,13.7c-3.2-1.9-3.2-6.3-3.2-10.5c0-1.9,0-3.7-0.2-5.5l-0.4-0.6l-0.5-0.9c-1-0.6-2.1-0.9-3.1-0.9
	c-1.1,0-2.2,0.3-3.1,0.9l-0.8,0.9c-2.7,6.4-7.5,12.5-13.2,17.1c-5.4,4.3-11.6,7.4-17.8,8.2c-0.6-0.2-1.2-0.6-1.8-1.1
	c-0.9-0.8-1.6-1.7-2-2.4c-2.2-9.5,4.7-17.5,11.2-25c0.4-0.5,0.8-0.9,1.1-1.3c4.8-2.9,10.5-3.7,16.1-3.2c6.5,0.6,12.8,3.2,17.6,6.8
	l0.8,0.2l1,0.1l1.2-0.4l0.6-0.3c1.3-1,1.7-2.2,1.7-3.5c0-1.4-0.6-2.8-1.3-3.7l-0.3-0.3c-4.7-4.7-10.7-7.3-17.1-8.4
	c-7.1-1.2-14.7-0.4-21.2,1.9l-0.3,0.1c-5.9,3.3-11.6,8.8-15.5,15.3c-3.7,6-6,13-6,19.9v0.2c0.2,2.8,1.3,5.8,3.1,8.3
	c1.7,2.4,3.9,4.3,6.6,5.5l0.3,0.1c13.4,3.3,23.1-5.2,32.1-13c1-0.9,2-1.7,3-2.6c0.2,0.5,0.5,1,0.8,1.5c0.9,1.5,2.1,2.9,3.7,4.1
	l0.2,0.1c2.1,1.2,4.5,2,7,2.3c2.3,0.3,4.8,0.2,7.4-0.5l0.5-0.2c6.3-3.6,11.2-8.4,15.5-13.8c3.6-4.6,6.7-9.6,9.9-14.6
	c2.3,2.6,4.8,4.6,7.5,5.9c2.9,1.4,6,2.3,9.6,2.8c-0.3,0.3-0.6,0.7-0.9,1.1l-0.3,0.6c-1.3,4.4-2.1,9.2-1.6,13.8
	c0.5,4.7,2.4,9.2,6.8,12.6l0.2,0.1c3.1,1.9,7.4,3.3,11.5,3.5c3.7,0.2,7.3-0.6,10.1-2.8l0.4-0.4l0.4-1
	C504.9,118.1,503.3,116.4,500.7,116.1z"/>
<path id="XMLID_102_" d="M323.9,112.9c-3.3-3.9-6.2-2.5-9.5-0.9c-1.6,0.8-3.3,1.6-4.8,1.1l-0.4-0.1c-1.2-0.1-2.1-0.7-3-1.4
	c-1-0.8-1.9-1.9-2.8-3c-1.3-2.2-2.1-5.3-2.7-7.9c-0.2-0.8-0.4-1.6-0.6-2.2c-3.4-29.1-1.4-59.8,0.5-89.6c0.1-1.6,0.2-3.3,0.3-4.9
	l-0.1-0.8c-0.4-1.1-1.1-2-2-2.5h0c-0.7-0.4-1.5-0.7-2.3-0.7c-0.7-0.1-1.5,0-2.3,0.3c-1.1,0.4-2.1,1.1-2.8,2.2l-0.3,0.9
	c-1,11.8-1.7,23.1-2.2,34.6c-0.5,11.4-0.6,23-0.6,35.6v0.2c0.2,3,0.3,5.9,0.4,8.8c0.5,14.2,1.1,29,12.4,38.1l0.2,0.2
	c2.2,1.3,4.8,1.9,7.6,2c3,0.1,6.1-0.5,8.7-1.4l0.4-0.2c0.3-0.2,0.9-0.4,1.4-0.6c2.7-1.1,5.8-2.3,4.8-6.8L323.9,112.9z"/>
<path id="XMLID_101_" d="M360.2,110.7c-0.7,0.4-1.4,0.7-2,1.1c-1.4,0.9-3,1.8-4.1,1.3l-0.6-0.1c-3-0.3-5.1-2.3-6.5-4.9
	c-1.6-2.8-2.6-6.3-3.3-9.2c-3.2-25.5-1.7-50.7-0.2-76.4c0.4-5.9,0.7-11.9,1-18.1l0-0.4c-0.2-1.3-0.8-2.3-1.6-3
	c-0.5-0.4-1.2-0.7-1.9-0.9c-0.6-0.1-1.3-0.2-2-0.1c-1.4,0.2-2.8,0.9-3.8,2.1l-0.4,1.1c-0.2,3.5-0.5,7.2-0.7,10.9
	c-1.4,20.5-2.8,40.2-2.1,62.6v0.1c0.1,2.1,0.2,4.1,0.2,6.1c0.5,13.5,1,27.2,11.7,36.8l0.2,0.1c2.3,1.6,4.7,2.4,7.3,2.7
	c2.4,0.3,4.9,0.1,7.5-0.4l0.8-0.3c0.5-0.3,1.3-0.6,2.2-0.9c2.9-1,6-2.1,6-6.4l-0.2-0.9C365.5,109.3,363,109.4,360.2,110.7z"/>
<path id="XMLID_98_" d="M278.3,107.3c-1.2,0.7-2.4,1.7-3.5,2.7c-1.4,1.2-2.8,1.7-3.8,2.4l-0.5,0.3c-1.5,0.6-2.7,1-3.9,1.5
	c-10.5,4.2-23.5,9.3-32.3,2c-0.1-0.3-0.2-0.5-0.3-0.8c-0.8-2.1-1.5-3.8-1.5-6c7-3.8,13.7-10.3,19.5-16c1.4-1.4,2.7-2.7,4.1-3.9
	l0.3-0.4c1.3-1.9,2.8-4.2,3.7-6.9c1-2.8,1.5-5.8,0.5-9l-0.1-0.2c-0.8-1.8-1.9-3.2-3.4-4.2c-1.4-1-3.2-1.7-5.3-2.2l-0.2,0
	c-3.9-0.4-7.6,0.9-10.9,2.9c-4.4,2.7-8.1,6.7-10.6,9.9l-0.1,0.2c-2.4,4.1-4.4,8.8-5.8,13.6c-1.3,4.5-2.1,9.1-2.1,13.5l0,0.2
	c0.4,4,1.2,8.4,2.9,12.3c1.9,4.1,4.9,7.5,9.7,9.1l0.2,0.1c9.1,2.1,17.9,1.1,26.2-1.7c8.2-2.7,15.8-6.9,23-11.5l0.7-0.8l0.5-0.7
	l0.7-2.5l-0.5-1.5C283.3,106,280.9,105.9,278.3,107.3z M235.9,90.8c1.7-3.3,3.9-6.4,5.8-9.1c1.4-1.4,3-2.7,4.7-3.6
	c1.3-0.6,2.7-1,4.2-0.8l0.1,0.4c-2.4,4.3-5.4,7.9-8.7,11.3c-2.6,2.6-5.3,5-8.3,7.3C234.3,94.5,235,92.6,235.9,90.8z"/>
<path id="XMLID_97_" d="M515.8,50.3c-0.2-0.2-0.4-0.5-0.6-0.7c-0.6-0.4-1.3-0.8-2-1.1c-1-0.4-2.1-0.5-3.4-0.2h0
	c-1.5,0.4-2.4,1.3-3,2.5c-0.4,1-0.6,2.1-0.6,3.1l0.2,0.9c0.6,1.2,1.4,2,2.4,2.5c0.9,0.5,1.9,0.6,3,0.6l0.4,0
	c1.5-0.3,2.5-1.2,3.2-2.4c0.6-1.1,0.8-2.4,0.9-3.5c-0.2-0.5-0.3-1-0.5-1.6C515.9,50.4,515.9,50.4,515.8,50.3z"/>
<line id="XMLID_96_" x1="101.9" y1="76.2" x2="98.6" y2="76.3"/>
<path id="XMLID_95_" d="M96.1,76.3c-5.7-0.4-23.5,3.2-26.7,3.5c-0.2-2.7-0.4-42.7-0.2-45.5l-0.4-1.5l-1.2-1.4L66.7,31l-1.4-0.3
	c-0.2,0-0.7-0.1-1.1-0.1c-1.4,0.1-2.9,0.3-4.2,1.6l-0.6,1.4c-0.4,8.1,0.2,39.9-0.3,48.5c-2.2,0.7-4.5,1.4-6.7,2
	c-11.1,3.3-22.6,6.7-30.4,17.2l-0.1,0.2c-1.3,2.2-2.4,4.6-3,7.2c-0.6,2.7-0.6,5.5,0.3,8.5l0.1,0.2c2.3,5.2,6.7,7.9,10.9,10.3
	c0.8,0.5,3,1.7,3,1.7c2.1,0.9,14.9,4.9,19.8,4.9h-0.1c22.5,1.4,44.1,0.6,65.1-2.7c18.4-3,36.2-8,53.4-15.1c0.9-0.4,1.9-1,3-1.4
	c0.5-0.3,5.9-3.5,6.4-3.7c0.8-0.7,4.9-3.2,6-4c0.8-0.8,3.8-3.1,4.5-3.5c3.6-2.9,6.8-6.3,9.4-10.1c3.1-4.5,5.4-9.4,6.7-14.5l0-0.1
	c1.8-9.3,0.6-18.1-2.6-25.9c-3.6-8.7-9.7-16.3-17-22h0c-9.9-7.8-21-12.8-32.6-16.2c-11.5-3.4-23.4-5.3-35.2-7.1l-0.2,0
	c-19.8-1.2-40.2-0.2-60,2.1c-19.4,2.3-38.3,5.8-55.8,9.8c-0.4,0.2-0.8,0.4-1.3,0.6c-0.4,0.5-0.8,0.7-1.5,1.4L0,24.4l0.1,0.5
	c0,0.5,0.2,0.9,0.4,1.4c0.4,1.1,1.2,2,2.1,2.6c0.9,0.6,1.9,0.9,2.9,0.9c0.4,0,1.4-0.3,1.4-0.3c0.4-0.2,3.9-1,5-1.1
	c0,0,9.4-2.3,13.8-3.2c2.5-0.5,36.6-6,44.2-6.3l0,0c5-0.8,10.6-0.7,15.8-0.8c3.1-0.1,6.1-0.2,9.3-0.5c11.4,0.2,22.8,0.6,33.9,2.1
	c11,1.5,21.8,4.1,32.1,8.6l0.2,0.1c6.4,1.9,13,5.5,18.8,9.9c5.7,4.4,10.6,9.7,13.9,15.3l0,0c2.4,4.3,3.7,9.2,4,14.2
	c0.3,5.2-0.6,10.4-2.5,15l0,0.1c-0.4,1.4-1.3,2.7-2,3.8c-0.4,0.6-0.7,1.2-1,1.7c-15.8,18.9-37.8,24.3-59.9,29.8
	c-2.8,0.7-5.6,1.4-7.7,1.9c-14.4,2.2-28.7,4.3-42.9,4.9c-14.1,0.6-28.2-0.3-42.2-4c-0.3-0.1-0.8-0.4-1.3-0.6
	c-4.3-1.9-9.7-4.2-9.8-8.9c1.8-6.8,7.4-10.6,13.3-13.3c5.5-2.5,11.8-3.9,17.7-5c0,1.6-0.3,13.8,0.8,18.2l0.5,0.7l0.9,0.7
	c1,0.2,2.1,0.6,3.2,0.5c1.4-0.1,2.8-0.6,3.8-2l0.4-1.2l0.4-19.4l0.3-0.7c9.6-2.2,19-3.5,28.3-3.7c1.7,0,3.5,0,5.2,0.1
	c0.5-0.1,15.4,1,15.9,1c0.1,0,18.7,3.9,21.4,1.9l0.9-1c0.6-1,1-2.4,0.8-3.6c-0.2-1.1-0.8-2.2-1.7-3.1l-1.4-0.6
	c-6.1-1.6-11.9-2.8-17.8-3.6c-5.4-0.8-10.8-1.2-16.4-1.6"/>
<path id="XMLID_94_" d="M527.4,113.7c-2.1,0.9-4.3,1.8-5.8-0.3l0-0.1c-3.4-4.5-5-9.8-5.7-15.5c-0.7-5.8-0.4-12,0-18.2l0-0.5
	c-0.2-1.1-0.7-1.9-1.5-2.5c-0.6-0.4-1.3-0.7-2.1-0.9c-0.7-0.1-1.4-0.1-2.1,0c-1.4,0.2-2.8,1-3.6,2l-0.4,1
	c-0.7,7.2-0.7,14.8,0.4,22.2c1,6.2,2.8,12.1,5.9,17.3l0,0c1.4,2.3,3.4,4,5.8,5c2.5,1.1,5.4,1.5,8.2,1.2l0.5-0.1
	c0.6-0.2,1.3-0.4,2.1-0.6c3.6-1,7.6-2.2,8.5-7l-0.2-1.4C534.5,110.7,531,112.2,527.4,113.7z"/>
<path id="XMLID_93_" d="M698.7,96.1c-2-2.7-4.8-1.8-6.5-1.2c-0.3,0.1,0.1,0-0.2,0.1l-0.5,0.2C681,102,670,107.4,658.3,111
	c-11.7,3.5-24.1,5.1-37.5,4.1c0,0,0.1,0,0.1,0l-0.1,0h0c-4.1-0.6-7.9-2-11-4.1c-2.9-2-5.2-4.6-6.6-7.9v0c-0.9-2.2-0.2-4.3,0.5-6.4
	c0.9-2.8,1.8-5.5,0.3-8.6l-1.1-1c-3-1.2-3-1.2-5.8,0.5l-0.7,0.7c-3.1,5.1-6.9,10.6-11.4,15.3c-3.5,3.7-7.3,7-11.4,9.2l0.1,0
	c-0.7,0.3-1.3,0.7-1.9,1c-2.1,1.2-3.9,2.3-8.6-1.1c-2.6-3-3.3-5.9-2.9-8.9c0.5-3.3,2.5-7.1,4.9-11.7l-0.1,0.1
	c3.1-4.9,5.4-8,8.3-10.1c2.9-2.1,6.6-3.3,12.5-4.6c6-0.8,10.6-0.5,14,0.6c3.3,1,5.6,2.9,7.4,5.2l0,0c1.4,1.9,4,3.5,5.8,3.9
	c0.9,0.2,1.7,0.2,2.4-0.1c1-0.4,1.7-1.2,1.8-2.5c0.1-1.2-0.4-3.1-2.2-5.6c-2.1-3.9-6.1-6.6-10.6-8.5c-5.5-2.2-12-3-17-2.8
	c-8.2,0.2-13.5,1.5-17.9,4.2c-4.4,2.7-7.6,6.7-11.8,12.6l-0.1,0.2c-0.4,0.8-0.8,1.4-1.1,2.1c-4.5,8.3-11.3,20.7-1.2,32.3l0.1,0.1
	c2.8,2.9,2.8,2.9,7.2,4.5l0.2,0.1c13.1,3.2,22.8-7,31.4-16.2c1.4,3.5,3.1,6.3,5.4,8.6c2.9,2.9,6.6,5.1,11.5,7.2l0.4,0.1
	c12.7,2.9,26.5,2.4,40-0.5c14.9-3.2,29.5-9.4,42-17.1l0.4-0.3c0.1-0.1,0.5-0.4,1.1-0.7c0.7-0.4,1.5-0.9,2.2-1.4
	C699.7,101.7,701.2,99.4,698.7,96.1L698.7,96.1z"/>
</svg>
